<mxfile host="65bd71144e">
    <diagram id="Z2fAhFKS_Aj3ktVDpENe" name="第 1 页">
        <mxGraphModel dx="1094" dy="605" grid="1" gridSize="10" guides="1" tooltips="1" connect="1" arrows="1" fold="1" page="1" pageScale="1" pageWidth="827" pageHeight="1169" background="none" math="0" shadow="0">
            <root>
                <mxCell id="0"/>
                <mxCell id="1" parent="0"/>
                <mxCell id="2" value="sadad" style="shape=process;whiteSpace=wrap;html=1;backgroundOutline=1;gradientColor=none;" parent="1" vertex="1">
                    <mxGeometry x="200" y="190" width="140" height="60" as="geometry"/>
                </mxCell>
                <mxCell id="3" value="" style="rounded=0;whiteSpace=wrap;html=1;gradientColor=none;" vertex="1" parent="1">
                    <mxGeometry x="180" y="260" width="120" height="100" as="geometry"/>
                </mxCell>
                <mxCell id="4" value="" style="shape=xor;whiteSpace=wrap;html=1;gradientColor=none;" vertex="1" parent="1">
                    <mxGeometry x="240" y="270" width="60" height="80" as="geometry"/>
                </mxCell>
            </root>
        </mxGraphModel>
    </diagram>
</mxfile>